<?xml version="1.0" encoding="UTF-8"?>
<svg width="90px" height="72px" viewBox="0 0 90 72" version="1.1" xmlns="http://www.w3.org/2000/svg" xmlns:xlink="http://www.w3.org/1999/xlink">
    <title>symbol</title>
    <defs>
        <filter x="-41.1%" y="-60.5%" width="182.1%" height="221.1%" filterUnits="objectBoundingBox" id="filter-1">
            <feOffset dx="0" dy="4" in="SourceAlpha" result="shadowOffsetOuter1"></feOffset>
            <feGaussianBlur stdDeviation="4" in="shadowOffsetOuter1" result="shadowBlurOuter1"></feGaussianBlur>
            <feColorMatrix values="0 0 0 0 0   0 0 0 0 0   0 0 0 0 0  0 0 0 0.08 0" type="matrix" in="shadowBlurOuter1" result="shadowMatrixOuter1"></feColorMatrix>
            <feMerge>
                <feMergeNode in="shadowMatrixOuter1"></feMergeNode>
                <feMergeNode in="SourceGraphic"></feMergeNode>
            </feMerge>
        </filter>
        <linearGradient x1="96.8848782%" y1="31.6930426%" x2="6.69267144%" y2="69.5239338%" id="linearGradient-2">
            <stop stop-color="#FF8700" offset="0%"></stop>
            <stop stop-color="#D83367" offset="100%"></stop>
        </linearGradient>
        <path d="M3.42259499,1.79718432 C11.6358388,0.599061439 19.8365041,0 28.0245908,0 C36.2094304,0 44.3942054,0.598586408 52.5789159,1.79575922 C54.543533,2.08312839 55.9999927,3.76812146 55.9999927,5.75364433 L55.9999927,31.5434371 C55.99999,33.5287106 54.5438875,35.2135718 52.5795639,35.5012238 C44.4074149,36.6979388 36.2225336,37.2962963 28.0249203,37.2962963 C19.824,37.2962963 11.6230143,36.6974559 3.42196315,35.4997753 C1.45694129,35.2128022 -7.31914397e-06,33.5276263 -7.31914397e-06,31.5417602 L-7.31914397e-06,5.75529921 C-1.50231423e-05,3.76918628 1.45728298,2.08387802 3.42259499,1.79718432 Z" id="path-3"></path>
    </defs>
    <g id="Módulo-Autorização-" stroke="none" stroke-width="1" fill="none" fill-rule="evenodd">
        <g id="MA-&gt;-LISTA-DE-USUÁRIOS-&gt;-Actions" transform="translate(-23.000000, -12.000000)">
            <g id="symbol" transform="translate(40.000000, 29.000000)" filter="url(#filter-1)">
                <mask id="mask-4" fill="white">
                    <use xlink:href="#path-3"></use>
                </mask>
                <use id="shape" fill="url(#linearGradient-2)" xlink:href="#path-3"></use>
                <g id="stripes" mask="url(#mask-4)" fill="#FF8700" fill-opacity="0.4" fill-rule="nonzero">
                    <g transform="translate(1.633333, -4.662037)" id="Combined-Shape">
                        <path d="M10.9825588,2.61451552 C10.3016732,2.72146086 9.80000114,3.30758764 9.80000114,3.99615359 L9.80000114,34.5437549 C9.80000114,35.2322027 10.3015046,35.8182659 10.9822495,35.925345 C20.0859728,37.3573333 29.1892898,38.0733015 38.2924166,38.0733015 C47.3939665,38.0733015 56.4803424,37.3575814 65.5517645,35.9260981 C66.2321983,35.8187247 66.7333314,35.2328022 66.7333314,34.5446155 L66.7333314,3.99530749 C66.7333314,3.30699784 66.2320242,2.72100914 65.551444,2.61377425 C56.4648036,1.18204314 47.37842,0.466203704 38.2920761,0.466203704 C29.2041827,0.466203704 20.1010812,1.18228735 10.9825588,2.61451552 Z M10.910078,2.15396928 C20.0524839,0.717989759 29.1798166,0 38.2920761,0 C47.4028418,0 56.5135326,0.71775439 65.6241484,2.15326317 C66.5315885,2.29624301 67.1999981,3.07756139 67.1999981,3.99530749 L67.1999981,34.5446155 C67.1999981,35.4621978 66.5318206,36.2434278 65.6245756,36.3865923 C56.5291237,37.8218676 47.418404,38.5395052 38.2924166,38.5395052 C29.1649089,38.5395052 20.0373252,37.8216285 10.9096655,36.385875 C10.0020058,36.243103 9.33333447,35.4616853 9.33333447,34.5437549 L9.33333447,3.99615358 C9.33333447,3.07806555 10.0022304,2.29656308 10.910078,2.15396928 Z"></path>
                        <path d="M8.64922544,4.94553404 C7.96833988,5.05247938 7.4666678,5.63860616 7.4666678,6.32717211 L7.4666678,36.8747734 C7.4666678,37.5632212 7.96817128,38.1492845 8.64891612,38.2563635 C17.7526394,39.6883519 26.8559565,40.40432 35.9590833,40.40432 C45.0606331,40.40432 54.1470091,39.6885999 63.2184312,38.2571166 C63.8988649,38.1497432 64.3999981,37.5638207 64.3999981,36.875634 L64.3999981,6.32632601 C64.3999981,5.63801636 63.8986909,5.05202766 63.2181107,4.94479277 C54.1314703,3.51306166 45.0450867,2.79722222 35.9587427,2.79722222 C26.8708494,2.79722222 17.7677479,3.51330587 8.64922544,4.94553404 Z M8.57674462,4.48498779 C17.7191506,3.04900828 26.8464833,2.33101852 35.9587427,2.33101852 C45.0695085,2.33101852 54.1801992,3.04877291 63.290815,4.48428169 C64.1982552,4.62726153 64.8666648,5.4085799 64.8666648,6.32632601 L64.8666648,36.8756341 C64.8666648,37.7932163 64.1984872,38.5744463 63.2912422,38.7176109 C54.1957904,40.1528861 45.0850707,40.8705238 35.9590833,40.8705238 C26.8315755,40.8705238 17.7039919,40.152647 8.57633218,38.7168935 C7.66867242,38.5741215 7.00000114,37.7927038 7.00000114,36.8747734 L7.00000114,6.3271721 C7.00000114,5.40908407 7.6688971,4.6275816 8.57674462,4.48498779 Z"></path>
                        <path d="M6.31589211,7.27655256 C5.63500655,7.3834979 5.13333447,7.96962468 5.13333447,8.65819063 L5.13333447,39.2057919 C5.13333447,39.8942397 5.63483794,40.480303 6.31558279,40.587382 C15.4193061,42.0193704 24.5226231,42.7353386 33.6257499,42.7353386 C42.7272998,42.7353386 51.8136757,42.0196185 60.8850979,40.5881351 C61.5655316,40.4807617 62.0666648,39.8948393 62.0666648,39.2066526 L62.0666648,8.65734453 C62.0666648,7.96903488 61.5653576,7.38304618 60.8847774,7.27581129 C51.7981369,5.84408018 42.7117533,5.12824074 33.6254094,5.12824074 C24.537516,5.12824074 15.4344145,5.84432438 6.31589211,7.27655256 Z M6.24341129,6.81600631 C15.3858173,5.3800268 24.51315,4.66203704 33.6254094,4.66203704 C42.7361751,4.66203704 51.8468659,5.37979143 60.9574817,6.81530021 C61.8649219,6.95828005 62.5333314,7.73959842 62.5333314,8.65734453 L62.5333314,39.2066526 C62.5333314,40.1242349 61.8651539,40.9054648 60.9579089,41.0486294 C51.862457,42.4839046 42.7517374,43.2015423 33.6257499,43.2015423 C24.4982422,43.2015423 15.3706585,42.4836655 6.24299885,41.047912 C5.33533909,40.90514 4.6666678,40.1237223 4.6666678,39.2057919 L4.6666678,8.65819062 C4.6666678,7.74010258 5.33556376,6.95860012 6.24341129,6.81600631 Z"></path>
                        <path d="M3.98255878,9.60757107 C3.30167322,9.71451642 2.80000114,10.3006432 2.80000114,10.9892091 L2.80000114,41.5368104 C2.80000114,42.2252583 3.30150461,42.8113215 3.98224946,42.9184005 C13.0859728,44.3503889 22.1892898,45.0663571 31.2924166,45.0663571 C40.3939665,45.0663571 49.4803424,44.350637 58.5517645,42.9191536 C59.2321983,42.8117802 59.7333314,42.2258578 59.7333314,41.5376711 L59.7333314,10.988363 C59.7333314,10.3000534 59.2320242,9.7140647 58.551444,9.60682981 C49.4648036,8.17509869 40.37842,7.45925926 31.2920761,7.45925926 C22.2041827,7.45925926 13.1010812,8.1753429 3.98255878,9.60757107 Z M3.91007795,9.14702483 C13.0524839,7.71104531 22.1798166,6.99305556 31.2920761,6.99305556 C40.4028418,6.99305556 49.5135326,7.71080995 58.6241484,9.14631873 C59.5315885,9.28929857 60.1999981,10.0706169 60.1999981,10.988363 L60.1999981,41.5376711 C60.1999981,42.4552534 59.5318206,43.2364833 58.6245756,43.3796479 C49.5291237,44.8149232 40.418404,45.5325608 31.2924166,45.5325608 C22.1649089,45.5325608 13.0373252,44.814684 3.90966552,43.3789305 C3.00200576,43.2361585 2.33333447,42.4547408 2.33333447,41.5368104 L2.33333447,10.9892091 C2.33333447,10.0711211 3.00223043,9.28961864 3.91007795,9.14702483 Z"></path>
                        <path d="M1.64922544,11.9385896 C0.968339882,12.0455349 0.466667803,12.6316617 0.466667803,13.3202277 L0.466667803,43.8678289 C0.466667803,44.5562768 0.968171276,45.14234 1.64891612,45.249419 C10.7526394,46.6814074 19.8559565,47.3973756 28.9590833,47.3973756 C38.0606331,47.3973756 47.1470091,46.6816555 56.2184312,45.2501722 C56.8988649,45.1427987 57.3999981,44.5568763 57.3999981,43.8686896 L57.3999981,13.3193816 C57.3999981,12.6310719 56.8986909,12.0450832 56.2181107,11.9378483 C47.1314703,10.5061172 38.0450867,9.79027778 28.9587427,9.79027778 C19.8708494,9.79027778 10.7677479,10.5063614 1.64922544,11.9385896 Z M1.57674462,11.4780434 C10.7191506,10.0420638 19.8464833,9.32407407 28.9587427,9.32407407 C38.0695085,9.32407407 47.1801992,10.0418285 56.290815,11.4773372 C57.1982552,11.6203171 57.8666648,12.4016355 57.8666648,13.3193816 L57.8666648,43.8686896 C57.8666648,44.7862719 57.1984872,45.5675019 56.2912422,45.7106664 C47.1957904,47.1459417 38.0850707,47.8635793 28.9590833,47.8635793 C19.8315755,47.8635793 10.7039919,47.1457026 1.57633218,45.7099491 C0.668672424,45.567177 1.13635942e-06,44.7857594 1.13635942e-06,43.8678289 L1.13635942e-06,13.3202277 C1.13635942e-06,12.4021396 0.668897097,11.6206372 1.57674462,11.4780434 Z"></path>
                    </g>
                </g>
                <g id="bars" mask="url(#mask-4)" fill="#FFFFFF">
                    <g transform="translate(14.700000, 6.993056)">
                        <path d="M1.75,14.219213 C2.20103255,14.219213 2.56666667,13.8539416 2.56666667,13.4033565 C2.56666667,12.9527714 2.20103255,12.5875 1.75,12.5875 C1.29896745,12.5875 0.933333333,12.9527714 0.933333333,13.4033565 C0.933333333,13.8539416 1.29896745,14.219213 1.75,14.219213 Z M1.75,15.1516204 C0.783501688,15.1516204 0,14.368896 0,13.4033565 C0,12.437817 0.783501688,11.6550926 1.75,11.6550926 C2.71649831,11.6550926 3.5,12.437817 3.5,13.4033565 C3.5,14.368896 2.71649831,15.1516204 1.75,15.1516204 Z" id="Oval" fill-rule="nonzero"></path>
                        <path d="M1.86666667,14.4523148 C2.12439955,14.4523148 2.33333333,14.6612486 2.33333333,14.9189815 L2.33333333,22.8435185 C2.33333333,23.1012514 2.12439955,23.3101852 1.86666667,23.3101852 C1.60893378,23.3101852 1.4,23.1012514 1.4,22.8435185 L1.4,14.9189815 C1.4,14.6612486 1.60893378,14.4523148 1.86666667,14.4523148 Z" id="Rectangle-2" fill-rule="evenodd"></path>
                        <path d="M25.0833333,16.5502315 C25.5343659,16.5502315 25.9,16.1849601 25.9,15.734375 C25.9,15.2837899 25.5343659,14.9185185 25.0833333,14.9185185 C24.6323008,14.9185185 24.2666667,15.2837899 24.2666667,15.734375 C24.2666667,16.1849601 24.6323008,16.5502315 25.0833333,16.5502315 Z M25.0833333,17.4826389 C24.116835,17.4826389 23.3333333,16.6999145 23.3333333,15.734375 C23.3333333,14.7688355 24.116835,13.9861111 25.0833333,13.9861111 C26.0498316,13.9861111 26.8333333,14.7688355 26.8333333,15.734375 C26.8333333,16.6999145 26.0498316,17.4826389 25.0833333,17.4826389 Z" id="Oval" fill-rule="nonzero"></path>
                        <path d="M25.2,16.7833333 C25.4577329,16.7833333 25.6666667,16.9922671 25.6666667,17.25 L25.6666667,22.8435185 C25.6666667,23.1012514 25.4577329,23.3101852 25.2,23.3101852 C24.9422671,23.3101852 24.7333333,23.1012514 24.7333333,22.8435185 L24.7333333,17.25 C24.7333333,16.9922671 24.9422671,16.7833333 25.2,16.7833333 Z" id="Rectangle-2" fill-rule="evenodd"></path>
                        <path d="M6.41666667,9.55717593 C6.86769921,9.55717593 7.23333333,9.19190454 7.23333333,8.74131944 C7.23333333,8.29073435 6.86769921,7.92546296 6.41666667,7.92546296 C5.96563412,7.92546296 5.6,8.29073435 5.6,8.74131944 C5.6,9.19190454 5.96563412,9.55717593 6.41666667,9.55717593 Z M6.41666667,10.4895833 C5.45016835,10.4895833 4.66666667,9.70685893 4.66666667,8.74131944 C4.66666667,7.77577996 5.45016835,6.99305556 6.41666667,6.99305556 C7.38316498,6.99305556 8.16666667,7.77577996 8.16666667,8.74131944 C8.16666667,9.70685893 7.38316498,10.4895833 6.41666667,10.4895833 Z" id="Oval" fill-rule="nonzero"></path>
                        <path d="M6.53333333,9.79027778 C6.79106622,9.79027778 7,9.99921156 7,10.2569444 L7,22.8435185 C7,23.1012514 6.79106622,23.3101852 6.53333333,23.3101852 C6.27560045,23.3101852 6.06666667,23.1012514 6.06666667,22.8435185 L6.06666667,10.2569444 C6.06666667,9.99921156 6.27560045,9.79027778 6.53333333,9.79027778 Z" id="Rectangle-2" fill-rule="evenodd"></path>
                        <path d="M20.4166667,7.22615741 C20.8676992,7.22615741 21.2333333,6.86088602 21.2333333,6.41030093 C21.2333333,5.95971583 20.8676992,5.59444444 20.4166667,5.59444444 C19.9656341,5.59444444 19.6,5.95971583 19.6,6.41030093 C19.6,6.86088602 19.9656341,7.22615741 20.4166667,7.22615741 Z M20.4166667,8.15856481 C19.4501684,8.15856481 18.6666667,7.37584041 18.6666667,6.41030093 C18.6666667,5.44476144 19.4501684,4.66203704 20.4166667,4.66203704 C21.383165,4.66203704 22.1666667,5.44476144 22.1666667,6.41030093 C22.1666667,7.37584041 21.383165,8.15856481 20.4166667,8.15856481 Z" id="Oval" fill-rule="nonzero"></path>
                        <path d="M20.5333333,7.45925926 C20.7910662,7.45925926 21,7.66819304 21,7.92592593 L21,22.8435185 C21,23.1012514 20.7910662,23.3101852 20.5333333,23.3101852 C20.2756005,23.3101852 20.0666667,23.1012514 20.0666667,22.8435185 L20.0666667,7.92592593 C20.0666667,7.66819304 20.2756005,7.45925926 20.5333333,7.45925926 Z" id="Rectangle-2" fill-rule="evenodd"></path>
                        <path d="M11.0833333,11.8881944 C11.5343659,11.8881944 11.9,11.5229231 11.9,11.072338 C11.9,10.6217529 11.5343659,10.2564815 11.0833333,10.2564815 C10.6323008,10.2564815 10.2666667,10.6217529 10.2666667,11.072338 C10.2666667,11.5229231 10.6323008,11.8881944 11.0833333,11.8881944 Z M11.0833333,12.8206019 C10.116835,12.8206019 9.33333333,12.0378774 9.33333333,11.072338 C9.33333333,10.1067985 10.116835,9.32407407 11.0833333,9.32407407 C12.0498316,9.32407407 12.8333333,10.1067985 12.8333333,11.072338 C12.8333333,12.0378774 12.0498316,12.8206019 11.0833333,12.8206019 Z" id="Oval" fill-rule="nonzero"></path>
                        <path d="M11.2,12.1212963 C11.4577329,12.1212963 11.6666667,12.3302301 11.6666667,12.587963 L11.6666667,22.8435185 C11.6666667,23.1012514 11.4577329,23.3101852 11.2,23.3101852 C10.9422671,23.3101852 10.7333333,23.1012514 10.7333333,22.8435185 L10.7333333,12.587963 C10.7333333,12.3302301 10.9422671,12.1212963 11.2,12.1212963 Z" id="Rectangle-2" fill-rule="evenodd"></path>
                        <path d="M15.75,2.56412037 C16.2010325,2.56412037 16.5666667,2.19884898 16.5666667,1.74826389 C16.5666667,1.2976788 16.2010325,0.932407407 15.75,0.932407407 C15.2989675,0.932407407 14.9333333,1.2976788 14.9333333,1.74826389 C14.9333333,2.19884898 15.2989675,2.56412037 15.75,2.56412037 Z M15.75,3.49652778 C14.7835017,3.49652778 14,2.71380337 14,1.74826389 C14,0.782724404 14.7835017,0 15.75,0 C16.7164983,0 17.5,0.782724404 17.5,1.74826389 C17.5,2.71380337 16.7164983,3.49652778 15.75,3.49652778 Z" id="Oval" fill-rule="nonzero"></path>
                        <path d="M15.8666667,2.79722222 C16.1243995,2.79722222 16.3333333,3.00615601 16.3333333,3.26388889 L16.3333333,22.8435185 C16.3333333,23.1012514 16.1243995,23.3101852 15.8666667,23.3101852 C15.6089338,23.3101852 15.4,23.1012514 15.4,22.8435185 L15.4,3.26388889 C15.4,3.00615601 15.6089338,2.79722222 15.8666667,2.79722222 Z" id="Rectangle-2" fill-rule="evenodd"></path>
                    </g>
                </g>
            </g>
        </g>
    </g>
</svg>